# xmcd
#
# Track frame offsets:
#	150
#	15380
#	26999
#	40118
#	57066
#	67134
#	74333
#	86824
#	99806
#	118844
#	133377
#	142110
#	155448
#
# Disc length: 2266 seconds
#
# Revision: 1
# Processed by: cddbd v1.5.2PL0 Copyright (c) Steve Scherf et al.
# Submitted via: audiograbber 1.83.01
#
DISCID=bb08d80d
DTITLE=Ennio MORRICONE - Ses PLus Belles Chansons
DYEAR=1900
DGENRE=western
TTITLE0=Le Professionel
TTITLE1=Il était une fois la révolution
TTITLE2=Rio Bravo
TTITLE3=Johnny Guitare
TTITLE4=Les Cavaliers du Ciel
TTITLE5=Bonanza
TTITLE6=Les Septs Mercenaires
TTITLE7=L'Homme à l'Harmonica
TTITLE8=Il était une fois l'Amérique
TTITLE9=El Mercenario
TTITLE10=La Libertade
TTITLE11=Le Bon, La Brute et le Truand
TTITLE12=Il était une fois dans l'ouest
EXTD=
EXTT0=
EXTT1=
EXTT2=
EXTT3=
EXTT4=
EXTT5=
EXTT6=
EXTT7=
EXTT8=
EXTT9=
EXTT10=
EXTT11=
EXTT12=
PLAYORDER=
